Coordinates
version=1
nRows=13
nColumns=36
inDegrees=yes

Units are S.I. units (second, meters, Newtons, ...)
If the header above contains a line with 'inDegrees', this indicates whether rotational values are in degrees (yes) or radians (no).

endheader
time	pelvis_tilt	pelvis_list	pelvis_rotation	pelvis_tx	pelvis_ty	pelvis_tz	hip_flexion_r	hip_adduction_r	hip_rotation_r	knee_angle_r	knee_angle_r_beta	ankle_angle_r	subtalar_angle_r	mtp_angle_r	hip_flexion_l	hip_adduction_l	hip_rotation_l	knee_angle_l	knee_angle_l_beta	ankle_angle_l	subtalar_angle_l	mtp_angle_l	lumbar_extension	lumbar_bending	lumbar_rotation	arm_flex_r	arm_add_r	arm_rot_r	elbow_flex_r	pro_sup_r	arm_flex_l	arm_add_l	arm_rot_l	elbow_flex_l	pro_sup_l
      0.00000000	     -2.09791753	     -3.45440220	      6.87028844	      1.03642449	      0.94883679	     -0.17429224	      3.90572499	     -4.29416622	     -2.81639488	     19.96994329	      0.34854126	      3.97269585	    -16.44210221	     -5.64042006	      7.55799497	      3.31412923	      3.71484637	     12.10584986	      0.21128694	     11.27771744	    -10.63588395	     -5.64042006	     -5.61736575	     -1.73556808	     -3.59999074	      4.36577916	     -5.78548081	     15.41045291	     27.37537679	     76.57133721	     -2.76739886	    -10.83890548	     -2.07681309	     32.90263087	     77.86813441
      0.01666670	     -3.72447364	     -4.27532240	      7.10312485	      1.03793560	      0.94159730	     -0.17439349	      4.80181775	     -4.07345226	     -3.37683426	     19.71391616	      0.34407275	      9.08267790	     -9.66293833	     -6.46126229	      9.46322992	      3.26845444	      4.61955749	     12.15101349	      0.21207519	     11.00372250	    -10.75367885	     -6.46126229	     -2.83113285	     -1.48975835	     -4.21831339	      3.31295498	     -4.96561478	     10.49188164	     28.75713553	     81.66557027	     -4.26861958	     -9.50661133	     -8.34380335	     34.45702876	     81.16726111
      0.03333330	     -4.32721618	     -3.98398096	      7.06033041	      1.03828245	      0.94058277	     -0.17382238	      5.38141812	     -4.61373674	     -3.65775140	     19.68415486	      0.34355331	     11.34999794	     -9.06496774	     -6.52636208	      9.89590752	      3.89035501	      4.39710460	     12.03355539	      0.21002516	     11.22835271	    -10.39539299	     -6.52636208	     -2.01062558	     -2.19738579	     -4.16912892	      3.06116551	     -4.27686901	      8.54027421	     29.19930934	     80.60948721	     -4.40373940	     -9.70487824	     -9.65303610	     34.45211971	     80.20496975
      0.05000000	     -4.21791419	     -3.70312006	      6.97165220	      1.04328823	      0.94275027	     -0.17711221	      5.00620665	     -5.04775257	     -3.98272989	     19.50754377	      0.34047087	     12.43842489	     -7.95014987	     -6.55457071	      9.03859927	      4.30201973	      4.91598919	     11.14468288	      0.19451141	     10.70457103	    -10.54917062	     -6.55457071	     -1.80366616	     -2.69901960	     -3.90584242	      2.48250987	     -4.07013507	      7.09832884	     29.84388541	     80.43100947	     -4.74367874	     -9.89786816	    -10.67263798	     34.11356441	     80.17421197
      0.06666670	     -4.15886094	     -3.62232190	      6.84855064	      1.03835092	      0.94197966	     -0.17399202	      5.27687081	     -5.13713659	     -3.92712937	     20.05461659	      0.35001909	     13.32917227	     -7.66066320	     -6.58478058	      8.79207539	      4.46064885	      5.30687514	     10.84953164	      0.18936005	     10.59430461	    -10.82690085	     -6.58478058	     -1.96859952	     -2.90662859	     -3.39844524	      2.09814167	     -4.01373734	      6.34920166	     31.05735232	     80.41171383	     -4.74532783	    -10.16727474	    -11.38622701	     34.35850886	     80.27787136
      0.08333330	     -3.97606354	     -3.46892708	      6.90671474	      1.04313942	      0.93739689	     -0.17689927	      5.22549891	     -5.28910614	     -4.06011667	     20.63586643	      0.36016381	     14.04160086	     -7.53988216	     -6.64733911	      8.36326041	      4.63286129	      5.76726693	     10.61416255	      0.18525208	     10.61823745	    -10.93852414	     -6.64733911	     -1.89388265	     -3.18488530	     -3.03566636	      1.76037586	     -3.92434943	      6.15730022	     31.53550301	     80.22001651	     -4.81879117	    -10.28018203	    -11.87102641	     34.54904466	     80.43724933
      0.10000000	     -3.92885896	     -3.38579305	      6.97944754	      1.03963999	      0.93998165	     -0.18011137	      5.46897934	     -5.53901880	     -4.13727673	     21.24800130	      0.37084758	     14.41751224	     -7.72349686	     -6.65701893	      8.16354261	      4.82590043	      6.05984456	     10.30005665	      0.17976990	     10.65089198	    -10.86177478	     -6.65701893	     -1.88462804	     -3.29115881	     -3.00060029	      1.78583617	     -3.93116960	      6.36664927	     31.71281742	     80.30080668	     -4.62183748	    -10.28963867	    -11.87483359	     34.56150336	     80.52543135
      0.11666670	     -3.71159860	     -3.30228240	      6.91639722	      1.03902496	      0.93950787	     -0.17976903	      5.52003040	     -5.70446981	     -4.15476835	     21.66432930	      0.37811388	     14.68396596	     -7.70628900	     -6.74281489	      7.82189863	      4.94175940	      6.24909558	     10.03292694	      0.17510761	     10.59145550	    -10.89069542	     -6.74281489	     -2.18780398	     -3.36191876	     -3.01925715	      1.87299916	     -4.04671275	      6.87445927	     32.15224876	     79.22933921	     -4.39045877	    -10.33216856	    -11.83547214	     34.92263192	     79.45571877
      0.13333330	     -3.94984162	     -3.29693283	      6.96412610	      1.03962808	      0.94031845	     -0.17982538	      5.94763763	     -5.79984314	     -4.19806357	     21.95465333	      0.38318099	     14.79746164	     -7.79157925	     -6.77613885	      7.97497486	      4.96989277	      6.18949604	      9.87272992	      0.17231164	     10.45781414	    -10.80478349	     -6.77613885	     -1.85883164	     -3.45965761	     -3.03176709	      1.47693473	     -4.06310315	      7.01185194	     32.70886193	     78.61696740	     -4.57798576	    -10.48437915	    -11.82056321	     35.60993143	     78.84109084
      0.15000000	     -3.43737614	     -3.25888616	      7.08482921	      1.03888689	      0.94260626	     -0.18011750	      5.56586241	     -5.88828560	     -4.67601311	     22.18716555	      0.38723909	     14.78329958	     -7.57747151	     -6.82120312	      7.37190356	      4.97886518	      6.54782489	      9.71064307	      0.16948269	     10.14878733	    -11.18018000	     -6.82120312	     -2.57535152	     -3.40014404	     -3.46961530	      1.99593842	     -4.00994954	      7.54847396	     32.31123311	     78.45810503	     -4.30316569	    -10.69615387	    -11.57887055	     35.31987184	     78.69686035
      0.16666670	     -3.36139303	     -3.27224585	      7.22280414	      1.04381955	      0.94042497	     -0.18200139	      5.39786108	     -5.93428943	     -5.01032016	     22.25318054	      0.38839127	     14.74837999	     -7.57356796	     -6.82831121	      7.12334023	      4.98055699	      6.69651865	      9.52972725	      0.16632512	     10.05913700	    -11.13425402	     -6.82831121	     -2.44041970	     -3.42109250	     -3.83930521	      1.79174799	     -3.98863982	      7.74625157	     32.33031963	     78.66230176	     -4.44560547	    -10.84632036	    -11.44710999	     35.18762867	     78.91672802
      0.18333330	     -3.10840736	     -3.27065310	      7.19738076	      1.04355031	      0.94078967	     -0.18234353	      5.05874025	     -5.99460418	     -5.32030020	     22.32864317	      0.38970834	     14.64186120	     -7.44740896	     -6.85656771	      6.70521695	      4.98188736	      6.79272655	      9.39787394	      0.16402384	     10.02637973	    -11.28180441	     -6.85656771	     -2.62293231	     -3.37209464	     -4.11532017	      1.80999554	     -4.07085591	      8.08964797	     32.35194317	     78.92574357	     -4.59347169	    -10.95252934	    -11.08654919	     34.91283803	     79.19859321
      0.20000000	     -3.03511263	     -3.25861979	      7.21399597	      1.03998431	      0.94123036	     -0.18570257	      5.13309240	     -6.11647740	     -5.39797753	     22.58523601	      0.39418673	     14.47252394	     -7.46799984	     -6.85774784	      6.57734713	      5.03859727	      6.75934326	      9.29310277	      0.16219524	     10.06461915	    -11.32676604	     -6.85774784	     -2.60392797	     -3.26717472	     -4.23513360	      1.77331699	     -4.13565711	      8.08362473	     32.36852321	     78.95685260	     -4.60005665	    -10.88023988	    -11.03294776	     34.88830755	     79.23943063
